<svg xmlns="http://www.w3.org/2000/svg" width="275.956" height="60.945" viewBox="0 0 275.956 60.945">
  <g id="RM_logo_white" transform="translate(-282.966 -201.969)">
    <rect id="사각형_861" data-name="사각형 861" width="275.956" height="60.945" rx="2.835" transform="translate(282.966 201.968)" fill="none"/>
    <g id="그룹_946" data-name="그룹 946">
      <rect id="사각형_862" data-name="사각형 862" width="247.61" height="32.598" transform="translate(297.14 216.142)" fill="none"/>
      <g id="그룹_945" data-name="그룹 945">
        <g id="그룹_943" data-name="그룹 943">
          <path id="패스_1303" data-name="패스 1303" d="M544.476,240.553a9.749,9.749,0,0,1-8.657,4.483c-5.852,0-9.958-4.688-9.958-11.361,0-6.638,3.9-11.257,9.547-11.257,5.235,0,9.341,4.585,9.341,10.436a9.814,9.814,0,0,1-.136,1.677H529.146a8.462,8.462,0,0,0,2.19,5.646,6.149,6.149,0,0,0,4.483,2.087,6.57,6.57,0,0,0,6.124-3.627Zm-3.251-8.794c-.274-3.969-2.6-6.57-5.783-6.57a6.01,6.01,0,0,0-5.167,3.011,8.089,8.089,0,0,0-1.1,3.559Z" fill="#fff"/>
          <path id="패스_1304" data-name="패스 1304" d="M519.842,244.488V215.78h3.08v28.708Z" fill="#fff"/>
          <path id="패스_1305" data-name="패스 1305" d="M512.67,220.262V216.7h3.559v3.558Zm.24,24.226V222.931h3.079v21.557Z" fill="#fff"/>
          <path id="패스_1306" data-name="패스 1306" d="M494.229,225.566a7.228,7.228,0,0,1,6.194-3.148c5.646,0,9.546,4.585,9.546,11.291,0,6.741-3.866,11.327-9.546,11.327a7.421,7.421,0,0,1-6.057-2.909l-.479,2.361H491.15V215.78h3.079Zm-.1,8.143c0,4.894,2.634,8.453,6.262,8.453s6.3-3.559,6.3-8.418c0-4.893-2.669-8.452-6.331-8.452C496.761,225.292,494.127,228.851,494.127,233.709Z" fill="#fff"/>
          <path id="패스_1307" data-name="패스 1307" d="M488.209,233.709c0,6.741-3.866,11.327-9.581,11.327s-9.581-4.586-9.581-11.327,3.9-11.291,9.616-11.291C484.309,222.418,488.209,227.037,488.209,233.709Zm-15.877,0c0,4.894,2.669,8.453,6.3,8.453s6.3-3.559,6.3-8.418c0-4.928-2.634-8.452-6.33-8.452C475,225.292,472.332,228.851,472.332,233.709Z" fill="#fff"/>
          <path id="패스_1308" data-name="패스 1308" d="M466.108,217.559v26.929h-3.079V221.426l-8.041,13.105-8.042-13.105v23.062h-3.079V217.559h4.14l6.981,11.531,6.98-11.531Z" fill="#fff"/>
        </g>
        <g id="그룹_944" data-name="그룹 944">
          <path id="패스_1309" data-name="패스 1309" d="M408.411,248.74H324.784l6.661,6.661Z" fill="#fff"/>
          <path id="패스_1310" data-name="패스 1310" d="M421.774,244.488v-13.33a4.236,4.236,0,1,1,8.439,0v13.33h5.15v-13.33c0-5.469-3.742-9.919-9.212-9.919a7.9,7.9,0,0,0-4.377,1.4V221.8h-5.15v22.692Z" fill="#fff"/>
          <path id="패스_1311" data-name="패스 1311" d="M404.713,221.221c-5.961,0-10.237,5.238-10.237,11.921,0,7.028,5.367,11.924,10.748,11.924,2.717,0,6.2-.932,9.121-5.08l-4.549-2.627c-3.518,5.186-9.381,2.554-10.058-2.631l14.835,0C415.843,226.581,410.573,221.221,404.713,221.221Zm4.5,8.992h-9.276C401.017,224.9,408.2,224.594,409.209,230.213Z" fill="#fff"/>
          <path id="패스_1312" data-name="패스 1312" d="M392.817,239.119a3.07,3.07,0,0,1-1.722.558,2.539,2.539,0,0,1-2.428-2.784v-9.711h4.4V221.8h-4.4v-5.655h-5.151V221.8h-2.725v5.386h2.725v9.789a7.749,7.749,0,0,0,7.656,8.094,10.612,10.612,0,0,0,5.038-1.428Z" fill="#fff"/>
          <path id="패스_1313" data-name="패스 1313" d="M373.786,221.8v13.331a4.236,4.236,0,1,1-8.439,0V221.8H360.2v13.331c0,5.469,3.742,9.919,9.212,9.919a7.9,7.9,0,0,0,4.377-1.4v.844h5.15V221.8Z" fill="#fff"/>
          <path id="패스_1314" data-name="패스 1314" d="M350.485,232.433l8.834-10.637H352.1l-6.179,7.9V214.268h-5.3v30.221h5.3v-9.321l7.6,9.321h7.216Z" fill="#fff"/>
          <path id="패스_1315" data-name="패스 1315" d="M332.531,221.8V222.8a8.455,8.455,0,0,0-4.852-1.564c-5.859,0-10.309,5.343-10.309,11.9s4.45,11.9,10.309,11.9a8.44,8.44,0,0,0,4.852-1.564v1.006h5.15V221.8Zm-4.852,17.785c-2.889,0-5-2.845-5-6.438s2.115-6.436,5-6.436,4.931,2.845,4.931,6.436S330.571,239.581,327.679,239.581Z" fill="#fff"/>
          <path id="패스_1316" data-name="패스 1316" d="M302.526,244.488V235.7h3.81l6.6,8.791h6.743L311.7,233.88a9.771,9.771,0,0,0-5.663-17.738h-8.9v28.346Zm0-22.964h3.515a4.394,4.394,0,1,1,0,8.787h-3.515Z" fill="#fff"/>
        </g>
      </g>
    </g>
  </g>
</svg>
