<svg xmlns="http://www.w3.org/2000/svg" width="166.57" height="100.029" viewBox="0 0 166.57 100.029">
  <g id="RM_logo_B_white" transform="translate(-337.66 -182.426)">
    <rect id="사각형_863" data-name="사각형 863" width="166.57" height="100.029" rx="2.835" transform="translate(337.66 182.426)" fill="none"/>
    <g id="그룹_950" data-name="그룹 950">
      <rect id="사각형_864" data-name="사각형 864" width="138.223" height="71.683" transform="translate(351.833 196.599)" fill="none"/>
      <g id="그룹_949" data-name="그룹 949">
        <g id="그룹_947" data-name="그룹 947">
          <path id="패스_1317" data-name="패스 1317" d="M452.442,264.347a9.749,9.749,0,0,1-8.657,4.483c-5.851,0-9.958-4.688-9.958-11.361,0-6.637,3.9-11.257,9.547-11.257,5.235,0,9.342,4.585,9.342,10.436a9.825,9.825,0,0,1-.137,1.677H437.112a8.465,8.465,0,0,0,2.19,5.646,6.149,6.149,0,0,0,4.483,2.087,6.57,6.57,0,0,0,6.125-3.627Zm-3.251-8.794c-.274-3.969-2.6-6.569-5.783-6.569a6.008,6.008,0,0,0-5.167,3.011,8.115,8.115,0,0,0-1.1,3.558Z" fill="#fff"/>
          <path id="패스_1318" data-name="패스 1318" d="M427.809,268.282V239.574h3.079v28.708Z" fill="#fff"/>
          <path id="패스_1319" data-name="패스 1319" d="M420.636,244.057V240.5H424.2v3.559Zm.24,24.225V246.725h3.08v21.557Z" fill="#fff"/>
          <path id="패스_1320" data-name="패스 1320" d="M402.2,249.36a7.228,7.228,0,0,1,6.193-3.148c5.646,0,9.547,4.585,9.547,11.292,0,6.741-3.867,11.326-9.547,11.326a7.42,7.42,0,0,1-6.057-2.908l-.479,2.36h-2.737V239.574h3.08Zm-.1,8.144c0,4.893,2.635,8.452,6.262,8.452s6.3-3.559,6.3-8.418c0-4.893-2.669-8.452-6.33-8.452C404.728,249.086,402.093,252.645,402.093,257.5Z" fill="#fff"/>
          <path id="패스_1321" data-name="패스 1321" d="M396.176,257.5c0,6.741-3.867,11.326-9.581,11.326s-9.581-4.585-9.581-11.326,3.9-11.292,9.615-11.292C392.275,246.212,396.176,250.832,396.176,257.5Zm-15.878,0c0,4.893,2.67,8.452,6.3,8.452s6.3-3.559,6.3-8.418c0-4.927-2.635-8.452-6.331-8.452C382.968,249.086,380.3,252.645,380.3,257.5Z" fill="#fff"/>
          <path id="패스_1322" data-name="패스 1322" d="M374.074,241.353v26.929h-3.079V245.22l-8.041,13.105-8.041-13.105v23.062h-3.08V241.353h4.14l6.981,11.532,6.98-11.532Z" fill="#fff"/>
        </g>
        <g id="그룹_948" data-name="그룹 948">
          <path id="패스_1323" data-name="패스 1323" d="M463.1,229.2H379.478l6.661,6.661Z" fill="#fff"/>
          <path id="패스_1324" data-name="패스 1324" d="M476.467,224.946v-13.33a4.236,4.236,0,1,1,8.439,0v13.33h5.15v-13.33c0-5.47-3.741-9.919-9.211-9.919a7.9,7.9,0,0,0-4.378,1.4v-.844h-5.15v22.692Z" fill="#fff"/>
          <path id="패스_1325" data-name="패스 1325" d="M459.406,201.678c-5.961,0-10.236,5.238-10.236,11.922,0,7.027,5.366,11.923,10.748,11.923,2.716,0,6.2-.931,9.121-5.079l-4.549-2.627c-3.518,5.186-9.381,2.554-10.058-2.632l14.835,0C470.536,207.038,465.266,201.678,459.406,201.678Zm4.5,8.993h-9.276C455.71,205.356,462.9,205.051,463.9,210.671Z" fill="#fff"/>
          <path id="패스_1326" data-name="패스 1326" d="M447.51,219.576a3.059,3.059,0,0,1-1.722.559,2.539,2.539,0,0,1-2.428-2.784V207.64h4.405v-5.386H443.36V196.6h-5.15v5.655h-2.724v5.386h2.724v9.789a7.75,7.75,0,0,0,7.657,8.094,10.608,10.608,0,0,0,5.038-1.429Z" fill="#fff"/>
          <path id="패스_1327" data-name="패스 1327" d="M428.479,202.254v13.33a4.236,4.236,0,1,1-8.439,0v-13.33h-5.15v13.33c0,5.47,3.742,9.919,9.212,9.919a7.9,7.9,0,0,0,4.377-1.4v.844h5.151V202.254Z" fill="#fff"/>
          <path id="패스_1328" data-name="패스 1328" d="M405.178,212.891l8.834-10.637h-7.219l-6.179,7.9V194.725h-5.3v30.221h5.3v-9.321l7.6,9.321h7.216Z" fill="#fff"/>
          <path id="패스_1329" data-name="패스 1329" d="M387.225,202.254v1.007a8.451,8.451,0,0,0-4.853-1.564c-5.858,0-10.309,5.342-10.309,11.9s4.451,11.9,10.309,11.9a8.443,8.443,0,0,0,4.853-1.563v1.006h5.149V202.254Zm-4.853,17.785c-2.889,0-5-2.845-5-6.438s2.115-6.436,5-6.436,4.931,2.845,4.931,6.436S385.265,220.039,382.372,220.039Z" fill="#fff"/>
          <path id="패스_1330" data-name="패스 1330" d="M357.219,224.946v-8.791h3.81l6.6,8.791h6.743l-7.97-10.608a9.771,9.771,0,0,0-5.663-17.739h-8.9v28.347Zm0-22.965h3.515a4.394,4.394,0,1,1,0,8.787h-3.515Z" fill="#fff"/>
        </g>
      </g>
    </g>
  </g>
</svg>
